<svg xmlns="http://www.w3.org/2000/svg" viewBox="0 0 174 152.26"><defs><style>.cls-1{fill:#b8b8b8;stroke:#231815;}.cls-1,.cls-3,.cls-4,.cls-5,.cls-7,.cls-8{stroke-miterlimit:10;}.cls-2{fill:#f8c8c9;}.cls-3,.cls-4{fill:none;}.cls-3{stroke:#e67e75;}.cls-4{stroke:#c4727a;}.cls-11,.cls-5{fill:#1370b0;}.cls-5{stroke:#fff;stroke-width:2px;}.cls-6{opacity:0.84;}.cls-7{fill:#fff;}.cls-7,.cls-8{stroke:#1370b0;}.cls-8{fill:#c9bc9c;}.cls-9{opacity:0.91;}.cls-10{fill:#956134;}</style></defs><title>logo_gis-oer_02</title><g id="レイヤー_2" data-name="レイヤー 2"><g id="レイヤー_2-2" data-name="レイヤー 2"><path class="cls-1" d="M50.43,121.79"/><polygon class="cls-2" points="35.21 91.99 21.5 118.5 37 120.5 50.53 151.92 118.59 152.26 134.25 120 149.94 118.75 135.35 91.99 174 83.94 135.35 34.26 114.98 41.76 109.59 31.81 64.33 32.54 56.71 41.76 35.21 34.26 0 83.94 35.21 91.99"/><path class="cls-3" d="M35.21,92.87c.59-.62.36-2.81,1.36-3.81,6-16,15-30,20-46.28"/><path class="cls-3" d="M133.19,92.54c-2.18-5.64-4-12-6.19-17.58-1.62-4.12-3.81-7.83-5.38-11.94C119.38,57.2,118,50.26,115.12,45"/><path class="cls-3" d="M57.08,42.79c4.66,0,9.25-1.1,13.94-1.1,3.16,0,6.21.78,9.37.92,3.65.16,7.33,0,11,0,5.67,0,11.32-.51,17-.73,1.85-.07,4.66-.6,6.33.37"/><path class="cls-3" d="M35.55,92c23.83-2.49,46.89,1.32,69.89.32,3,0,7-1,10-1,6,1,13,3,19.5.78"/><path class="cls-3" d="M56.94,44.41q-.17-.31-.34-.09c.58,8.36,1.07,16.84,1.83,25.19.34,3.71,1,7.31,1.26,10.94"/><path class="cls-3" d="M114,42.43a.94.94,0,0,0-.69-.19c-.46,1-.25,2.39-.44,3.56-.4,2.38-1.14,4.75-1.71,7.11-1.07,4.48-2.44,8.77-3.37,13.29-.71,3.48-2.16,7.76-1.94,11.29"/><path class="cls-3" d="M53.79,90.91c2.77-3.86,3.77-7.86,6.29-12.29"/><path class="cls-3" d="M114.22,91.15c-1.71-3.56-4.71-11.64-8.87-13.13"/><path class="cls-4" d="M21.5,118.5c7.71.23,31.83,3.05,39.57,3,9.64-.11,19.71-1.25,29.33-.81,8.71.4,17.43,1.1,26.19.68,4.5-.21,8.78-.87,13.38-.87,1.67,0,3.64-.71,5.28-.48s7.71-.46,14.86-1.45"/><path class="cls-3" d="M60.35,78.16a2.37,2.37,0,0,1-.27-.14c4.13-1.06,8.53-.73,12.72-.68,5.34.06,10.69.41,16,.41,4.22,0,8.39.3,12.58.55,1.47.09,3.64-.58,5,.13"/><path class="cls-5" d="M48.28,47.05c1.9-1.1,8.43-1.88,11.55-.66s4.4-.53,4.4-.53a7.18,7.18,0,0,0,.59-4.12c-.49-1.82-10.45-3.66-17.33-1.25s-11.75,6.91-12.94,15,.94,16.81,3.1,20.17,6.73,8,11.83,9.14,16.12-1.65,17.87-2.87,2-3.28,1.09-10.4S67.69,60,66.34,58.87s-12.61.88-13.73,1.65-.76,4.91.39,5.5,6.92-1,7.69-.2,1.34,9,1.4,10.54-4.38,1.83-7.33,2S45.6,75.58,42.45,69s-2.08-13.49.36-16.82A21,21,0,0,1,48.28,47.05Z"/><path class="cls-5" d="M87.88,32c3.54-.12,5,2.33,4.86,13.64s-.33,27-1.16,28.08a3.67,3.67,0,0,1-3.71,1.44c-1.43-.35-4.57-.08-4.57-2.26V47.26c0-5.71-.83-12.79,1.32-14.43S87.88,32,87.88,32Z"/><path class="cls-5" d="M122,36.35a21.73,21.73,0,0,1,11.95,1.77c3.76,1.76,4.81,3.72,3.44,5.92s-2.1,2.09-6.17.44-7.47-1.86-9.25.13-3,3.92-1.25,6.42,7.43,6.11,9.56,7.83,6.17,4.57,5.34,10.16-3.11,12.91-9,13.39-15.27-.46-17.48-2.6S107,76.34,108.35,74s4.36-.26,6.58.83,6.4,3.05,9.6.52,3.56-5.93,2.68-8-6.86-6-9.14-7.67-7.09-5.41-5.62-13.3S119.93,36.59,122,36.35Z"/><g class="cls-6"><polygon class="cls-7" points="40.69 96.77 38.62 101.24 47.3 102 36.95 111.28 39.34 112.62 49.69 104.91 45.9 115.11 50.57 116.84 54.66 102.64 59.68 103.35 62.58 97.11 56.94 97.08 59.68 92.98 52.68 92.98 50.43 96.61 40.69 96.77"/><polygon class="cls-7" points="62.75 107.17 63.63 112.62 79.7 112.62 80.26 109.75 62.75 107.17"/><polygon class="cls-7" points="115.4 98.5 116.86 107.17 124.42 104.91 124.31 98.5 115.4 98.5"/><path class="cls-7" d="M116.86,113.77l5,3.88s12.49-10.68,12.71-11.8l-3-2.5a53.61,53.61,0,0,1-5.9,6.54C123.3,111.9,116.86,113.77,116.86,113.77Z"/><path class="cls-7" d="M85,96.87l.61,6.49H98.7s-.25,4.17-1.75,6.54a32.26,32.26,0,0,1-4.19,5l2.39,3.87s4.83-5.25,5.75-7.38,3.24-14.17,3.24-14.17Z"/><path class="cls-7" d="M104.93,96.11c.52-.79,3-1.62,4.19-.49s1.34,5.11.19,5.61-4.54,1.38-5-.12A5.67,5.67,0,0,1,104.93,96.11Z"/><ellipse class="cls-8" cx="106.91" cy="99.15" rx="1.03" ry="0.96"/></g><g class="cls-9"><path class="cls-10" d="M79.22,142.69c.24.38.41,2.13,1.38,2.75A30.49,30.49,0,0,0,85,147.68L82,149.16a16.49,16.49,0,0,1-5.33-3.7,16.46,16.46,0,0,1-5.8,3.7l-2.17-1.55a13,13,0,0,0,6.24-4,23,23,0,0,1-2.77-4.94L70.88,140l-2.42-3.21,1-.85h-3.5l-1.09.75H67.5l1.81,2-2.9,2.17,3.26-.47.48,2.73-4.35.57.37,2.75a2,2,0,0,1-.83,1.66,4.15,4.15,0,0,1-2.61.74h-3L59.65,147l2.46-.15c.87.12.53-.89.37-1.64l-.78-1.11-4,.34-2.25-2.79,6.29-.38v-1.13l1,.1,1.09-.85h-2.9a6.49,6.49,0,0,1-1.57.94,9,9,0,0,1-1.93.85l-2.42-2.73a14.09,14.09,0,0,0,5.32-2.55h-5.2V133h5.2V132L54,132l-.46-3.14,6.76.53-1.48-3.21h6.73l-1,3.21H68c.73-.56,1.44-2.9,1.93-3.55l2.91,3A28,28,0,0,1,69.31,133h1.45v1.32c1.53-2,2-5.29,2.6-8.12l6.62.45c-.08.44-2.34,2.61-2.82,4.18l8.21-1.57v5.23l-3.26-.73Q81.4,139.77,79.22,142.69Zm-14.74-10,.72-.66h-.72Zm13.53,1H75.84a8.81,8.81,0,0,1-1.09,1.79,7.76,7.76,0,0,0,.85,2.26,6.33,6.33,0,0,0,1.09,1.89A12.68,12.68,0,0,0,78,133.73Z"/><path class="cls-10" d="M90.46,134.68h-4v-3h4.71v-4.43h4.23v4.43h3.26v3H95.9a22.46,22.46,0,0,0,3.62,3.3l-1.93,3.11-2.18-1.88-1.1,10.87-2.16-.52-1-8.55a15.16,15.16,0,0,1-3,3.68L85.87,141A16.93,16.93,0,0,0,90.46,134.68Zm14.5,0H99.89v-3l5.52-.55V127l8.78-.86-2.46,5,6.93-.22-.77,4.33-7.24-.61-1.41,11.65c0,1.66-.18,2.74-2.31,2.74h-3.44l-1.3-3.42h2.61c.79.06,1.63-.25,1.63-.88v-5.66a16.67,16.67,0,0,1-3,3.58,26.4,26.4,0,0,1-4.88,3.51l-2.25-3.13a22,22,0,0,0,5.8-4.34A15.16,15.16,0,0,0,105,134.68Z"/></g><ellipse class="cls-11" cx="50.57" cy="24.92" rx="3.31" ry="7.17" transform="translate(-4.36 37.62) rotate(-39.25)"/><ellipse class="cls-11" cx="66.58" cy="12.66" rx="3.31" ry="7.17" transform="translate(-0.21 24.16) rotate(-20.54)"/><ellipse class="cls-11" cx="87" cy="7.17" rx="3.31" ry="7.17"/><ellipse class="cls-11" cx="106.29" cy="12.66" rx="7.17" ry="3.31" transform="translate(46.43 101.4) rotate(-62.79)"/><ellipse class="cls-11" cx="121.22" cy="24.92" rx="7.17" ry="3.31" transform="translate(18.23 93.53) rotate(-45.29)"/></g></g></svg>