<?xml version="1.0" standalone="no"?>
<!DOCTYPE svg PUBLIC "-//W3C//DTD SVG 20010904//EN"
 "http://www.w3.org/TR/2001/REC-SVG-20010904/DTD/svg10.dtd">
<svg version="1.0" xmlns="http://www.w3.org/2000/svg"
 width="513.000000pt" height="513.000000pt" viewBox="0 0 513.000000 513.000000"
 preserveAspectRatio="xMidYMid meet">
<metadata>
Created by potrace 1.11, written by Peter Selinger 2001-2013
</metadata>
<g transform="translate(0.000000,513.000000) scale(0.100000,-0.100000)"
fill="#000000" stroke="none">
<path d="M2531 4793 c-74 -61 -79 -303 -8 -380 45 -50 104 -17 128 71 40 144
-6 326 -81 326 -10 0 -27 -8 -39 -17z"/>
<path d="M1870 4613 c-19 -24 -21 -37 -17 -93 7 -88 11 -101 48 -171 43 -80
90 -116 145 -110 6 0 18 15 27 32 41 87 -27 295 -115 349 -44 27 -62 25 -88
-7z"/>
<path d="M3165 4618 c-74 -43 -151 -174 -156 -264 -3 -61 0 -73 21 -94 48 -48
137 18 202 150 36 73 45 172 19 203 -16 20 -57 22 -86 5z"/>
<path d="M1356 4232 c-53 -59 62 -260 179 -313 82 -38 121 -16 112 62 -18 153
-221 327 -291 251z"/>
<path d="M3604 4220 c-91 -45 -194 -178 -194 -251 0 -30 28 -59 57 -59 66 0
170 73 227 158 40 61 54 113 37 148 -14 31 -69 33 -127 4z"/>
<path d="M2513 3885 c-45 -20 -68 -23 -180 -25 -70 -1 -197 -2 -280 -4 l-153
-2 -27 -34 c-16 -18 -48 -58 -73 -87 l-45 -54 -116 0 c-64 0 -133 -4 -153 -9
-32 -7 -57 -1 -164 37 -237 83 -265 93 -273 93 -7 0 -64 -77 -175 -236 -34
-49 -256 -363 -608 -858 -216 -304 -281 -400 -252 -374 4 3 22 2 39 -3 18 -5
102 -25 187 -44 85 -19 213 -49 285 -65 72 -17 148 -35 170 -39 54 -11 261
-60 308 -72 l38 -10 -112 -217 c-61 -119 -135 -262 -164 -317 -89 -168 -125
-240 -125 -250 0 -5 17 -10 38 -11 54 0 219 -14 234 -19 7 -2 42 -6 78 -10
110 -10 104 -5 158 -133 59 -138 233 -541 260 -603 11 -24 34 -79 53 -121 28
-68 36 -78 58 -78 86 -2 1926 -11 1969 -10 12 0 22 4 22 9 0 5 41 94 91 198
182 375 262 540 308 632 l46 94 80 2 c81 2 215 14 226 20 3 2 39 7 80 10 41 4
77 9 81 13 4 4 -5 27 -21 52 -25 41 -46 78 -136 245 -18 33 -85 156 -150 274
-64 117 -113 217 -108 221 4 4 67 19 138 34 72 14 141 29 155 32 14 3 36 7 50
10 13 3 56 12 95 20 38 9 81 18 95 20 50 10 129 26 195 40 37 7 60 12 215 44
85 18 160 35 166 39 7 4 -162 230 -432 576 -244 314 -450 577 -457 585 -6 9
-25 33 -42 55 -16 22 -34 45 -40 51 -5 7 -41 53 -80 103 -38 50 -73 91 -77 91
-4 0 -36 -10 -70 -23 -57 -21 -69 -22 -123 -12 -33 6 -96 10 -139 9 -111 -4
-184 -33 -263 -107 l-31 -29 -13 23 c-67 128 -103 196 -110 204 -5 7 -48 10
-111 9 -331 -8 -438 -7 -452 5 -9 7 -34 15 -56 17 -23 2 -45 6 -49 8 -4 3 -30
-6 -58 -19z"/>
</g>
</svg>
